<?xml version="1.0" encoding="UTF-8" standalone="no"?>
<svg
   xmlns:dc="http://purl.org/dc/elements/1.1/"
   xmlns:cc="http://creativecommons.org/ns#"
   xmlns:rdf="http://www.w3.org/1999/02/22-rdf-syntax-ns#"
   xmlns:svg="http://www.w3.org/2000/svg"
   xmlns="http://www.w3.org/2000/svg"
   version="1.1"
   id="Layer_1"
   x="0px"
   y="0px"
   viewBox="0 0 130 32"
   xml:space="preserve"
   width="130"
   height="32"><metadata
     id="metadata3893"><rdf:RDF><cc:Work
         rdf:about=""><dc:format>image/svg+xml</dc:format><dc:type
           rdf:resource="http://purl.org/dc/dcmitype/StillImage" /><dc:title></dc:title></cc:Work></rdf:RDF></metadata><defs
     id="defs3891" /><style
     type="text/css"
     id="style3742">
	.st0{fill:#095EA9;}
	.st1{fill:#EAAD21;}
	.st2{fill:url(#SVGID_1_);}
	.st3{fill:url(#SVGID_2_);}
	.st4{fill:#FFFFFF;}
	.st5{fill:#333333;}
</style><g
     id="g3886"
     transform="translate(-97.119099,-343.7)"><circle
       class="st0"
       cx="106.8"
       cy="354.39999"
       r="8.5"
       id="circle3744"
       style="fill:#095ea9" /><path
       class="st1"
       d="m 170.3,362.2 c 1.6,0 1.9,0 3.6,-1.4 1.5,-1.2 1.5,-1.5 1.9,-2.9 l 1.7,-6.3 c 0.4,-1.4 0.4,-1.6 -0.6,-2.9 -0.5,-0.6 -0.9,-1 -1.3,-1.2 -0.2,-0.1 -0.5,-0.1 -1.4,-0.1 h -7.6 l -0.9,3.2 h 0.7 l -2.2,8.3 h -0.7 l -0.9,3.2 z m 0.6,-11.5 h 1 c 1.3,0 1.5,0.3 1.1,1.5 l -1.4,5.2 c -0.3,1.1 -0.5,1.6 -1.7,1.6 h -1.2 z"
       id="path3746"
       style="fill:#eaad21" /><path
       class="st1"
       d="m 124.3,362.3 c 1.6,0 1.9,0 3.6,-1.4 1.5,-1.2 1.5,-1.5 1.9,-2.9 l 1.7,-6.4 c 0.4,-1.4 0.4,-1.6 -0.6,-2.9 -0.5,-0.6 -0.9,-1 -1.3,-1.2 -0.2,-0.1 -0.5,-0.1 -1.4,-0.1 h -7.6 l -0.9,3.2 h 0.7 l -2.2,8.4 h -0.7 l -0.9,3.2 z m 0.6,-11.6 h 1 c 1.3,0 1.5,0.3 1.1,1.5 l -1.4,5.3 c -0.3,1.1 -0.5,1.6 -1.7,1.6 h -1.2 z"
       id="path3748"
       style="fill:#eaad21" /><path
       class="st1"
       d="m 193.1,350.6 c -1,0 -1.2,0 -2.6,1.1 -1.4,1.1 -1.5,1.3 -1.8,2.4 l -1.3,4.8 c -0.3,1.1 -0.3,1.2 0.6,2.3 0.8,1 0.8,1 1.9,1 h 5 l 1.2,-4.5 h -2.9 l -0.4,1.3 c -0.1,0.3 -0.3,0.6 -0.8,0.6 -0.9,0 -1.3,-0.1 -1,-1.1 l 1.1,-4.2 c 0.3,-1.2 0.6,-1.3 1.6,-1.2 0.3,0 0.4,0.1 0.4,0.3 0,0.1 0,0.2 -0.3,1.2 h 2.8 l 1.1,-4.1 z"
       id="path3750"
       style="fill:#eaad21" /><path
       class="st1"
       d="m 203.9,350.6 0.5,-1.7 c 0.1,-0.5 0.2,-0.6 0,-0.7 -0.1,0 -0.3,0.1 -0.6,0.3 l -4.8,2.9 -0.5,1.6 h 1 l -1.6,5.7 c -0.3,1.2 -0.4,1.4 0.3,2.4 0.7,1.1 1,1.1 2.2,1.1 h 2.8 l 0.7,-2.6 c -2.6,0.1 -2.5,-0.3 -2.1,-1.5 l 1.4,-5.1 h 2.4 l 0.7,-2.5 z"
       id="path3752"
       style="fill:#eaad21" /><path
       class="st1"
       d="m 210.9,350.6 c -1.1,0 -1.3,0 -2.8,1.1 -1.4,1 -1.4,1.3 -1.5,1.7 l -0.2,0.6 -1.3,4.7 c -0.3,1.1 -0.3,1.3 0.5,2.4 0.9,1.1 1,1.1 1.9,1.1 h 2.7 c 1.1,0 1.2,0 2.7,-1.2 1.2,-1 1.3,-1.1 1.6,-2.3 l 1.3,-4.7 c 0.3,-1.2 0.3,-1.3 -0.5,-2.5 -0.7,-1 -1,-1 -2,-1 z m 0,7.7 c -0.2,0.6 -0.4,1.4 -1.4,1.4 -1,0 -0.7,-0.9 -0.6,-1.4 l 1,-3.9 c 0.2,-0.6 0.4,-1.3 1.3,-1.3 1,0 0.8,0.7 0.6,1.3 z"
       id="path3754"
       style="fill:#eaad21" /><path
       class="st1"
       d="m 182.6,350.6 c -1.1,0 -1.3,0 -2.8,1.1 -1.4,1 -1.4,1.3 -1.5,1.7 l -0.2,0.6 -1.3,4.7 c -0.3,1.1 -0.3,1.3 0.5,2.4 0.9,1.1 1,1.1 1.9,1.1 h 2.7 c 1.1,0 1.2,0 2.7,-1.2 1.2,-1 1.3,-1.1 1.6,-2.2 l 1.3,-4.7 c 0.3,-1.2 0.3,-1.3 -0.5,-2.5 -0.7,-1 -1,-1 -2,-1 z m 0,7.7 c -0.2,0.6 -0.4,1.4 -1.4,1.4 -1,0 -0.7,-0.9 -0.6,-1.4 l 1,-3.9 c 0.2,-0.6 0.4,-1.3 1.3,-1.3 1,0 0.8,0.7 0.6,1.3 z"
       id="path3756"
       style="fill:#eaad21" /><path
       class="st1"
       d="m 137.5,350.6 h -4.3 l -0.7,2.6 v 0 h 0.6 l -1.7,6.4 h -0.6 l -0.7,2.6 h 4.9 l 0.7,-2.6 h -0.6 l 1.7,-6.4 h 0.5 c 0.6,0 0.7,0.1 0.6,0.9 l -0.5,1.8 h 3.1 l 1,-3.7 c 0.3,-1.5 0.2,-1.5 -1.2,-1.6 h -1.4 l -1.7,1.2 z"
       id="path3758"
       style="fill:#eaad21" /><path
       class="st1"
       d="m 222.2,350.6 h -4.3 l -0.7,2.6 v 0 h 0.6 l -1.7,6.4 h -0.6 l -0.7,2.6 h 4.9 l 0.7,-2.6 h -0.6 l 1.7,-6.4 h 0.5 c 0.6,0 0.7,0.1 0.6,0.9 l -0.5,1.8 h 3.1 l 1,-3.7 c 0.3,-1.5 0.2,-1.5 -1.2,-1.6 h -1.4 l -1.7,1.2 z"
       id="path3760"
       style="fill:#eaad21" /><polygon
       class="st1"
       points="151.3,359.7 154.6,347.5 150.2,347.5 149.5,350.1 150.2,350.1 147.6,359.7 147,359.7 146.3,362.3 151.2,362.3 151.9,359.7 "
       id="polygon3762"
       style="fill:#eaad21" /><polygon
       class="st1"
       points="157.8,359.7 161,347.5 156.7,347.5 156,350.1 156.6,350.1 154,359.7 153.4,359.7 152.7,362.3 157.7,362.3 158.4,359.7 "
       id="polygon3764"
       style="fill:#eaad21" /><path
       class="st1"
       d="m 144.4,347.5 h 3.7 l -0.6,2.1 h -3.7 z m -1.3,3.1 -0.7,2.6 h 0.6 l -1.7,6.5 h -0.6 l -0.7,2.6 h 5 l 0.7,-2.6 h -0.6 l 2.4,-9.1 z"
       id="path3766"
       style="fill:#eaad21" /><linearGradient
       id="SVGID_1_"
       gradientUnits="userSpaceOnUse"
       x1="5204.4248"
       y1="5409.8647"
       x2="5204.4248"
       y2="5382.5132"
       gradientTransform="matrix(0.4321,1e-4,-1e-4,0.4321,-2145.9382,-1981.0533)"><stop
         offset="0"
         style="stop-color:#FFFFFF"
         id="stop3768" /><stop
         offset="7.078210e-02"
         style="stop-color:#FDFEFE"
         id="stop3770" /><stop
         offset="0.1009"
         style="stop-color:#F6F9FA"
         id="stop3772" /><stop
         offset="0.1232"
         style="stop-color:#E9F0F4"
         id="stop3774" /><stop
         offset="0.1418"
         style="stop-color:#D8E4EB"
         id="stop3776" /><stop
         offset="0.1579"
         style="stop-color:#C1D4DF"
         id="stop3778" /><stop
         offset="0.1725"
         style="stop-color:#A4C0D0"
         id="stop3780" /><stop
         offset="0.1858"
         style="stop-color:#82A8BF"
         id="stop3782" /><stop
         offset="0.1977"
         style="stop-color:#5C8EAB"
         id="stop3784" /><stop
         offset="0.2"
         style="stop-color:#5488A7"
         id="stop3786" /><stop
         offset="0.347"
         style="stop-color:#87ABC1"
         id="stop3788" /><stop
         offset="0.494"
         style="stop-color:#B2C9D7"
         id="stop3790" /><stop
         offset="0.6363"
         style="stop-color:#D3E1E9"
         id="stop3792" /><stop
         offset="0.7712"
         style="stop-color:#EBF1F5"
         id="stop3794" /><stop
         offset="0.8958"
         style="stop-color:#FAFCFC"
         id="stop3796" /><stop
         offset="1"
         style="stop-color:#FFFFFF"
         id="stop3798" /></linearGradient><path
       class="st2"
       d="m 106.7,353.5 c -3.9,-2 -3,-6.4 -1.2,-7.5 -3.9,0.5 -6.4,4.2 -6.1,8.3 l -1.5,1.1 0.1,1.2 8,-1.4 z"
       id="path3801"
       style="fill:url(#SVGID_1_)" /><linearGradient
       id="SVGID_2_"
       gradientUnits="userSpaceOnUse"
       x1="5224.9497"
       y1="5396.8237"
       x2="5224.9497"
       y2="5424.1719"
       gradientTransform="matrix(0.4321,1e-4,-1e-4,0.4321,-2145.9382,-1981.0533)"><stop
         offset="0"
         style="stop-color:#FFFFFF"
         id="stop3803" /><stop
         offset="7.078210e-02"
         style="stop-color:#FDFEFE"
         id="stop3805" /><stop
         offset="0.1009"
         style="stop-color:#F6F9FA"
         id="stop3807" /><stop
         offset="0.1232"
         style="stop-color:#E9F0F4"
         id="stop3809" /><stop
         offset="0.1418"
         style="stop-color:#D8E4EB"
         id="stop3811" /><stop
         offset="0.1579"
         style="stop-color:#C1D4DF"
         id="stop3813" /><stop
         offset="0.1725"
         style="stop-color:#A4C0D0"
         id="stop3815" /><stop
         offset="0.1858"
         style="stop-color:#82A8BF"
         id="stop3817" /><stop
         offset="0.1977"
         style="stop-color:#5C8EAB"
         id="stop3819" /><stop
         offset="0.2"
         style="stop-color:#5488A7"
         id="stop3821" /><stop
         offset="0.347"
         style="stop-color:#87ABC1"
         id="stop3823" /><stop
         offset="0.494"
         style="stop-color:#B2C9D7"
         id="stop3825" /><stop
         offset="0.6363"
         style="stop-color:#D3E1E9"
         id="stop3827" /><stop
         offset="0.7712"
         style="stop-color:#EBF1F5"
         id="stop3829" /><stop
         offset="0.8958"
         style="stop-color:#FAFCFC"
         id="stop3831" /><stop
         offset="1"
         style="stop-color:#FFFFFF"
         id="stop3833" /></linearGradient><path
       class="st3"
       d="m 106.8,355.3 c 3.9,2 3,6.4 1.2,7.5 3.9,-0.5 6.4,-4.2 6.1,-8.3 l 1.5,-1.1 -0.1,-1.2 -8,1.4 z"
       id="path3836"
       style="fill:url(#SVGID_2_)" /><path
       class="st1"
       d="m 222.3,360.6 c 0,-0.8 0.6,-1.5 1.5,-1.5 0.8,0 1.4,0.7 1.4,1.5 0,0.8 -0.7,1.5 -1.5,1.5 -0.7,0 -1.4,-0.7 -1.4,-1.5 z m 2.6,0.1 c 0,-0.7 -0.5,-1.1 -1.1,-1.1 -0.7,0 -1.1,0.4 -1.1,1.1 0,0.7 0.5,1.1 1.1,1.1 0.6,0 1.1,-0.5 1.1,-1.1 z m -0.4,0.7 h -0.4 l -0.3,-0.7 h -0.2 v 0.7 h -0.3 v -1.6 h 0.8 c 0.4,0 0.6,0.1 0.6,0.5 0,0.3 -0.2,0.4 -0.4,0.4 z m -0.6,-0.9 c 0.1,0 0.2,0 0.2,-0.2 0,-0.2 -0.2,-0.2 -0.3,-0.2 h -0.3 v 0.4 z"
       id="path3838"
       style="fill:#eaad21" /><path
       class="st4"
       d="m 106.8,353.5 c -3.9,-2 -3,-6.4 -1.2,-7.5 -3.9,0.5 -6.4,4.2 -6.1,8.3 l -1.5,1.1 0.1,1.2 8,-1.4 z"
       id="path3840"
       style="fill:#ffffff" /><path
       class="st4"
       d="m 106.9,355.3 c 3.9,2 3,6.4 1.2,7.5 3.9,-0.5 6.4,-4.2 6.1,-8.3 l 1.5,-1.1 -0.1,-1.2 -8,1.4 z"
       id="path3842"
       style="fill:#ffffff" /><g
       id="g3884"><path
         class="st5"
         d="m 116.6,364 h 6 l -0.3,1.1 h -2.1 l -1.7,6.4 h -1.8 l 1.7,-6.4 h -2.1 z"
         id="path3844"
         style="fill:#333333" /><path
         class="st5"
         d="m 121.4,371.5 2,-7.5 h 1.7 l -0.7,2.4 v 0 c 0.7,-0.7 1.3,-0.7 1.7,-0.7 0.9,0 1.6,0.4 1.3,1.4 l -1.2,4.4 h -1.7 l 1,-3.9 c 0.1,-0.6 0.2,-0.9 -0.4,-0.9 -0.6,0 -1,0.4 -1.1,1 l -1,3.8 z"
         id="path3846"
         style="fill:#333333" /><path
         class="st5"
         d="m 128.3,367.8 c 0.3,-1.3 1.4,-2.1 3,-2.1 2.3,0 2.3,0.9 1.9,2.5 L 133,369 h -3.3 l -0.2,0.8 c -0.2,0.7 0.1,0.9 0.6,0.9 0.6,0 0.9,-0.3 1.1,-1.1 h 1.7 c -0.3,1.3 -1.2,2.1 -2.9,2.1 -1.9,0 -2.5,-0.7 -2,-2.4 z m 3.2,0.2 0.1,-0.5 c 0.1,-0.6 0,-0.7 -0.7,-0.7 -0.8,0 -0.9,0.5 -1.1,1 l -0.1,0.2 z"
         id="path3848"
         style="fill:#333333" /><path
         class="st5"
         d="m 135.4,371.5 2,-7.5 h 3.7 c 0.4,0 1.3,0.1 1.6,0.9 0.3,0.5 0.2,1.4 -0.2,2.6 -0.4,1.5 -0.9,3.2 -2.5,3.9 -0.4,0.2 -0.9,0.2 -1.4,0.2 h -3.2 z m 2.8,-1.1 c 1.6,0 1.9,-0.7 2.5,-2.8 0.5,-1.8 0.4,-2.5 -0.6,-2.5 h -1.2 l -1.4,5.3 z"
         id="path3850"
         style="fill:#333333" /><path
         class="st5"
         d="m 145.4,366.9 v 0 c 0.3,-0.4 0.6,-0.6 0.9,-0.8 0.6,-0.3 0.9,-0.3 1.1,-0.3 l -0.4,1.5 c -0.9,-0.1 -1.6,0.1 -1.9,0.9 l -0.9,3.3 h -1.7 l 1.5,-5.6 h 1.6 z"
         id="path3852"
         style="fill:#333333" /><path
         class="st5"
         d="m 146.7,371.5 1.5,-5.6 h 1.7 l -1.5,5.6 z m 1.7,-6.3 0.3,-1.2 h 1.7 l -0.3,1.2 z"
         id="path3854"
         style="fill:#333333" /><path
         class="st5"
         d="m 149.6,371.5 2,-7.5 h 1.7 l -2,7.5 z"
         id="path3856"
         style="fill:#333333" /><path
         class="st5"
         d="m 152.5,371.5 2,-7.5 h 1.7 l -2,7.5 z"
         id="path3858"
         style="fill:#333333" /><path
         class="st5"
         d="m 157.6,371.5 2,-7.5 h 2.9 c 0.8,0 1.5,0 1.9,0.6 0.3,0.4 0.2,0.8 0.1,1.3 -0.2,0.7 -0.5,1.3 -1.6,1.6 v 0 c 1,0.1 1.2,0.8 0.9,1.7 -0.1,0.3 -0.2,0.6 -0.4,0.9 -0.6,1 -1.4,1.4 -2.7,1.4 z m 2.4,-1.1 c 0.4,0 0.7,0 1.1,-0.1 0.5,-0.2 0.7,-0.7 0.8,-1 0.2,-0.8 0.1,-1.2 -1,-1.2 h -0.7 l -0.6,2.3 z m 0.9,-3.3 c 0.4,0 1,0 1.3,-0.3 0.2,-0.2 0.3,-0.4 0.4,-0.8 0.2,-0.6 0.1,-0.8 -0.7,-0.9 h -0.8 l -0.5,1.9 h 0.3 z"
         id="path3860"
         style="fill:#333333" /><path
         class="st5"
         d="m 164.2,371.5 1.5,-5.6 h 1.7 l -1.5,5.6 z m 1.7,-6.3 0.3,-1.2 h 1.7 l -0.3,1.2 z"
         id="path3862"
         style="fill:#333333" /><path
         class="st5"
         d="m 169.8,371.6 c -1,0.1 -2.4,0.2 -2.1,-0.9 l 1,-3.8 H 168 l 0.3,-1 h 0.7 l 0.4,-1.5 h 1.7 l -0.4,1.5 h 0.7 l -0.3,1 h -0.7 l -0.9,3.5 c 0,0.2 0.4,0.2 0.7,0.2 z"
         id="path3864"
         style="fill:#333333" /><path
         class="st5"
         d="m 177.9,366.3 c 0.2,-0.7 0.3,-1.3 -0.7,-1.3 -0.6,0 -1,0.2 -1.2,0.7 -0.2,0.6 0.2,0.8 0.7,1.1 0.5,0.3 1.4,0.9 1.8,1.2 0.5,0.5 0.6,0.9 0.4,1.6 -0.4,1.4 -1.8,2.2 -3.5,2.2 -2.1,0 -2.7,-0.9 -2.3,-2.3 l 0.1,-0.5 h 1.8 l -0.1,0.4 c -0.2,0.7 -0.1,1.3 0.8,1.3 0.8,0 1.2,-0.3 1.3,-0.9 0.1,-0.4 -0.1,-0.7 -0.4,-1 -0.8,-0.6 -1.8,-1 -2.3,-1.7 -0.2,-0.3 -0.3,-0.8 -0.1,-1.2 0.3,-1.3 1.5,-2 3.3,-2 2.8,0 2.3,1.7 2.1,2.5 h -1.7 z"
         id="path3866"
         style="fill:#333333" /><path
         class="st5"
         d="m 179.3,371.5 2,-7.5 h 1.7 l -0.7,2.4 v 0 c 0.7,-0.7 1.3,-0.7 1.7,-0.7 0.9,0 1.6,0.4 1.3,1.4 l -1.2,4.4 h -1.7 l 1,-3.9 c 0.1,-0.6 0.2,-0.9 -0.4,-0.9 -0.6,0 -1,0.4 -1.1,1 l -1,3.8 z"
         id="path3868"
         style="fill:#333333" /><path
         class="st5"
         d="m 188.7,371.5 c -0.1,-0.2 0,-0.4 0.1,-0.6 v 0 c -0.5,0.5 -1.1,0.7 -1.7,0.7 -1.3,0 -1.8,-0.5 -1.5,-1.7 0.3,-1.3 1.6,-1.6 3,-2 0.8,-0.2 1.1,-0.5 1.1,-0.9 0,-0.2 -0.3,-0.3 -0.7,-0.3 -0.8,0 -1,0.3 -1.1,0.8 h -1.6 c 0.3,-1.1 0.9,-1.8 3,-1.8 2.3,0 2.1,0.9 1.9,1.7 l -0.9,3.3 c -0.1,0.3 -0.1,0.5 -0.1,0.8 z m 0.6,-2.9 c -0.5,0.2 -1,0.4 -1.5,0.7 -0.3,0.2 -0.4,0.4 -0.5,0.7 -0.1,0.4 0,0.7 0.6,0.7 1,0 1.1,-1 1.3,-1.5 z"
         id="path3870"
         style="fill:#333333" /><path
         class="st5"
         d="m 194.2,366.9 v 0 c 0.3,-0.4 0.6,-0.6 0.9,-0.8 0.6,-0.3 0.9,-0.3 1.1,-0.3 l -0.4,1.5 c -0.9,-0.1 -1.6,0.1 -1.9,0.9 l -0.9,3.3 h -1.7 l 1.5,-5.6 h 1.6 z"
         id="path3872"
         style="fill:#333333" /><path
         class="st5"
         d="m 198.6,366.5 v 0 c 0.5,-0.6 1,-0.8 1.7,-0.7 1.1,0 1.6,0.5 1.2,2 l -0.6,2 c -0.3,0.9 -0.8,1.9 -2.2,1.9 -0.6,0 -1.1,-0.2 -1.3,-0.7 v 0 l -0.7,2.5 h -1.6 l 2,-7.5 h 1.7 z m -0.9,3.2 c -0.2,0.6 0,1 0.5,1 0.5,0 0.8,-0.4 1,-1 l 0.5,-1.9 c 0.1,-0.6 0.3,-1.1 -0.5,-1.1 -0.8,0 -1,0.8 -1.1,1.2 z"
         id="path3874"
         style="fill:#333333" /><path
         class="st5"
         d="m 202.3,367.8 c 0.3,-1.3 1.4,-2.1 3,-2.1 2.3,0 2.3,0.9 1.9,2.5 L 207,369 h -3.3 l -0.2,0.8 c -0.2,0.7 0.1,0.9 0.6,0.9 0.6,0 0.9,-0.3 1.1,-1.1 h 1.7 c -0.3,1.3 -1.2,2.1 -2.9,2.1 -1.9,0 -2.5,-0.7 -2,-2.4 z m 3.3,0.2 0.1,-0.5 c 0.1,-0.6 0,-0.7 -0.7,-0.7 -0.8,0 -0.9,0.5 -1.1,1 l -0.1,0.2 z"
         id="path3876"
         style="fill:#333333" /><path
         class="st5"
         d="m 210.2,366.5 v 0 c 0.6,-0.6 1.3,-0.7 1.7,-0.7 0.9,0 1.6,0.4 1.3,1.4 l -1.2,4.4 h -1.7 l 1,-3.8 c 0.1,-0.5 0.2,-0.9 -0.4,-0.9 -0.6,0 -1,0.4 -1.1,1 l -1,3.7 h -1.7 l 1.5,-5.6 h 1.7 z"
         id="path3878"
         style="fill:#333333" /><path
         class="st5"
         d="m 214,367.8 c 0.3,-1.3 1.4,-2.1 3,-2.1 2.3,0 2.3,0.9 1.9,2.5 l -0.2,0.8 h -3.3 l -0.2,0.8 c -0.2,0.7 0.1,0.9 0.6,0.9 0.6,0 0.9,-0.3 1.1,-1.1 h 1.7 c -0.3,1.3 -1.2,2.1 -2.9,2.1 -1.9,0 -2.5,-0.7 -2,-2.4 z m 3.3,0.2 0.1,-0.5 c 0.1,-0.6 0,-0.7 -0.7,-0.7 -0.8,0 -0.9,0.5 -1.1,1 l -0.1,0.2 z"
         id="path3880"
         style="fill:#333333" /><path
         class="st5"
         d="m 221.9,366.9 v 0 c 0.3,-0.4 0.6,-0.6 0.9,-0.8 0.6,-0.3 0.9,-0.3 1.1,-0.3 l -0.4,1.5 c -0.9,-0.1 -1.6,0.1 -1.9,0.9 l -0.9,3.3 H 219 l 1.5,-5.6 h 1.6 z"
         id="path3882"
         style="fill:#333333" /></g></g></svg>