<?xml version="1.0" encoding="UTF-8" standalone="no"?>
<svg
   xmlns:dc="http://purl.org/dc/elements/1.1/"
   xmlns:cc="http://creativecommons.org/ns#"
   xmlns:rdf="http://www.w3.org/1999/02/22-rdf-syntax-ns#"
   xmlns:svg="http://www.w3.org/2000/svg"
   xmlns="http://www.w3.org/2000/svg"
   version="1.1"
   id="Layer_1"
   x="0px"
   y="0px"
   viewBox="0 0 130 32"
   xml:space="preserve"
   width="130"
   height="32"><metadata
     id="metadata3974"><rdf:RDF><cc:Work
         rdf:about=""><dc:format>image/svg+xml</dc:format><dc:type
           rdf:resource="http://purl.org/dc/dcmitype/StillImage" /><dc:title></dc:title></cc:Work></rdf:RDF></metadata><defs
     id="defs3972" /><style
     type="text/css"
     id="style3895">
	.st0{fill:#333333;}
	.st1{fill:#E92127;}
	.st2{fill:#231F20;stroke:#231F20;stroke-width:1.1455;}
	.st3{fill:#231F20;stroke:#231F20;stroke-width:1.1037;}
	.st4{fill:url(#SVGID_1_);stroke:#231F20;stroke-width:0.7159;}
	.st5{fill:url(#SVGID_2_);stroke:#231F20;stroke-width:0.7159;}
	.st6{fill:url(#SVGID_3_);stroke:#231F20;stroke-width:0.7159;}
	.st7{fill:url(#SVGID_4_);stroke:#231F20;stroke-width:0.7159;}
	.st8{fill:url(#SVGID_5_);stroke:#231F20;stroke-width:0.7159;}
	.st9{fill:url(#SVGID_6_);stroke:#231F20;stroke-width:0.7159;}
</style><g
     id="g3967"
     transform="translate(-96.663625,-344.07102)"><g
       id="g3899"><path
         class="st0"
         d="m 221.6,358.5 c 0.1,-0.2 0.3,-0.4 0.4,-0.6 0.2,-0.2 0.4,-0.3 0.6,-0.4 0.2,-0.1 0.5,-0.1 0.7,-0.1 0.3,0 0.5,0 0.7,0.1 0.2,0.1 0.4,0.2 0.6,0.4 0.2,0.2 0.3,0.4 0.4,0.6 0.1,0.2 0.2,0.5 0.2,0.8 0,0.3 -0.1,0.6 -0.2,0.8 -0.1,0.2 -0.3,0.4 -0.4,0.6 -0.2,0.2 -0.4,0.3 -0.6,0.4 -0.2,0.1 -0.5,0.1 -0.7,0.1 -0.3,0 -0.5,0 -0.7,-0.1 -0.2,-0.1 -0.4,-0.2 -0.6,-0.4 -0.2,-0.2 -0.3,-0.4 -0.4,-0.6 -0.1,-0.2 -0.2,-0.5 -0.2,-0.8 0,-0.3 0.1,-0.6 0.2,-0.8 z m 0.5,1.4 c 0.1,0.2 0.2,0.3 0.3,0.5 0.1,0.1 0.3,0.2 0.5,0.3 0.2,0.1 0.4,0.1 0.6,0.1 0.2,0 0.4,0 0.6,-0.1 0.2,-0.1 0.3,-0.2 0.5,-0.3 0.1,-0.1 0.2,-0.3 0.3,-0.5 0.1,-0.2 0.1,-0.4 0.1,-0.6 0,-0.2 0,-0.4 -0.1,-0.6 -0.1,-0.2 -0.2,-0.3 -0.3,-0.5 -0.1,-0.1 -0.3,-0.2 -0.5,-0.3 -0.2,-0.1 -0.4,-0.1 -0.6,-0.1 -0.2,0 -0.4,0 -0.6,0.1 -0.2,0.1 -0.3,0.2 -0.5,0.3 -0.1,0.1 -0.2,0.3 -0.3,0.5 -0.1,0.2 -0.1,0.4 -0.1,0.6 -0.1,0.2 0,0.4 0.1,0.6 z m 1.3,-1.7 c 0.3,0 0.5,0 0.6,0.1 0.1,0.1 0.2,0.3 0.2,0.5 0,0.1 0,0.2 0,0.3 0,0.1 -0.1,0.1 -0.1,0.2 -0.1,0 -0.1,0.1 -0.2,0.1 -0.1,0 -0.1,0 -0.2,0 l 0.6,0.9 h -0.4 l -0.5,-0.9 H 223 v 0.9 h -0.4 v -2.1 z m 0,0.9 c 0.1,0 0.2,0 0.3,-0.1 0.1,0 0.1,-0.1 0.1,-0.2 0,-0.1 0,-0.1 0,-0.1 0,0 -0.1,-0.1 -0.1,-0.1 0,0 -0.1,0 -0.1,0 -0.1,0 -0.1,0 -0.2,0 H 223 v 0.6 h 0.4 z"
         id="path3897"
         style="fill:#333333" /></g><rect
       x="97.5"
       y="372.29999"
       class="st0"
       width="128.5"
       height="3"
       id="rect3901"
       style="fill:#333333" /><rect
       x="97.5"
       y="369.10001"
       class="st1"
       width="128.5"
       height="1.5"
       id="rect3903"
       style="fill:#e92127" /><g
       id="g3919"><path
         class="st2"
         d="m 101.2,350 c 0,-0.8 -0.5,-1.2 -1.3,-1.2 h -2 V 346 h 12.3 c 7.7,0 12.7,3.1 12.7,10.4 0,7.1 -4.9,10.1 -12.9,10.1 H 97.9 v -2.7 h 2 c 0.8,0 1.3,-0.5 1.3,-1.2 z m 6.4,13.8 h 1.6 c 4.5,0 6.5,-1.4 6.5,-7.6 0,-6.1 -2,-7.5 -6.5,-7.5 h -1.6 z"
         id="path3905"
         style="fill:#231f20;stroke:#231f20;stroke-width:1.14549994" /><path
         class="st2"
         d="m 138.8,346 5.7,15.5 c 0.7,1.9 1.2,2.3 2.3,2.3 h 1.2 v 2.7 h -12.4 v -2.7 h 1 c 1,0 1.9,-0.1 1.9,-0.5 0,-0.3 0,-0.6 -0.2,-1.1 l -0.7,-2.2 h -6.9 l -0.4,1.2 c -0.4,1.1 -0.5,1.5 -0.5,2 0,0.5 1.2,0.6 2.1,0.6 h 1 v 2.7 h -10 v -2.7 h 1.2 c 1.2,0 1.7,-0.4 2.3,-2.3 l 5.7,-15.5 z m -7.1,11.3 h 4.9 l -2.4,-6.7 h -0.1 z"
         id="path3907"
         style="fill:#231f20;stroke:#231f20;stroke-width:1.14549994" /><path
         class="st2"
         d="m 153.4,350 c 0,-0.8 -0.5,-1.2 -1.3,-1.2 H 150 V 346 h 15.6 c 4.7,0 7.5,1.7 7.5,5 0,2.9 -2.2,4.3 -5.1,4.6 v 0.1 c 2.5,0.6 4,1.4 4,3.9 v 3.3 c 0,0.6 0.2,1.1 1.2,1.1 0.9,0 1.1,-1 1.1,-1.9 v -1.2 h 2.3 v 1.1 c 0,3 -1.2,5.3 -5.5,5.3 -3.2,0 -5.4,-1.5 -5.4,-5.1 v -2.5 c 0,-1.9 -0.3,-2.3 -3.1,-2.3 h -2.8 v 5.3 c 0,0.8 0.5,1.2 1.3,1.2 h 2.1 v 2.7 H 150 v -2.7 h 2.1 c 0.8,0 1.3,-0.5 1.3,-1.2 z m 6.4,4.6 h 3.2 c 2.5,0 3.8,-0.5 3.8,-3 0,-2.3 -1.5,-2.8 -4.6,-2.8 h -2.4 z"
         id="path3909"
         style="fill:#231f20;stroke:#231f20;stroke-width:1.14549994" /><path
         class="st2"
         d="m 181.6,350 c 0,-0.8 -0.5,-1.2 -1.3,-1.2 h -2.1 V 346 h 22.5 v 7.9 h -3.1 c 0,-4.5 -1.9,-5.1 -6.2,-5.1 H 188 v 5.9 h 1 c 2,0 2.7,-0.7 2.7,-2.6 v -0.7 h 2.8 v 9.3 h -2.8 V 360 c 0,-1.1 -0.5,-2.6 -1.7,-2.6 h -2 v 6.4 h 4.1 c 3.6,0 5.4,-0.7 5.4,-5.7 h 3.1 v 8.4 h -22.5 v -2.7 h 2.1 c 0.8,0 1.3,-0.5 1.3,-1.2 V 350 Z"
         id="path3911"
         style="fill:#231f20;stroke:#231f20;stroke-width:1.14549994" /><path
         class="st3"
         d="m 214.2,355 h -0.7 c -0.4,0 -0.8,0 -0.8,0.3 0,0.1 0.2,0.4 0.4,0.6 l 1.6,1.6 1.7,-1.3 c 0.4,-0.3 0.6,-0.5 0.6,-0.8 0,-0.4 -0.5,-0.4 -1,-0.4 h -0.3 v -2.4 h 7.9 v 2.4 h -0.7 c -0.7,0 -1.5,0.4 -2.3,1 l -4,3.1 3.9,4 c 0.7,0.7 1.3,1.1 2,1.1 h 1.3 v 2.4 h -11.1 v -2.4 h 0.7 c 0.5,0 0.9,0 0.9,-0.4 0,-0.1 -0.2,-0.4 -0.4,-0.6 l -1.7,-1.6 -2.2,2 c -0.2,0.2 -0.3,0.3 -0.3,0.4 0,0.2 0.4,0.2 0.8,0.2 h 0.8 v 2.4 h -8 v -2.4 h 0.9 c 0.7,0 1.4,-0.3 2.2,-1 l 4,-3.4 -4,-3.8 c -0.6,-0.6 -1.2,-1 -2.1,-1 h -0.7 v -2.4 h 10.6 z"
         id="path3913"
         style="fill:#231f20;stroke:#231f20;stroke-width:1.10370004" /><g
         id="g3917"><path
           class="st3"
           d="m 203.6,350.3 v -3.4 h 19.8 v 3.4 z"
           id="path3915"
           style="fill:#231f20;stroke:#231f20;stroke-width:1.10370004" /></g></g><g
       id="g3965"><linearGradient
         id="SVGID_1_"
         gradientUnits="userSpaceOnUse"
         x1="111.4962"
         y1="362.84509"
         x2="111.4962"
         y2="346.23169"><stop
           offset="0"
           style="stop-color:#FFF8CA"
           id="stop3921" /><stop
           offset="1"
           style="stop-color:#EAAD21"
           id="stop3923" /></linearGradient><path
         class="st4"
         d="m 102.4,349.2 c 0,-0.8 -0.5,-1.2 -1.3,-1.2 h -2 v -2.7 h 12.3 c 7.7,0 12.7,3.1 12.7,10.4 0,7.1 -4.9,10.1 -12.9,10.1 H 99.1 V 363 h 2 c 0.8,0 1.3,-0.5 1.3,-1.2 z m 6.3,13.8 h 1.6 c 4.5,0 6.5,-1.4 6.5,-7.6 0,-6.1 -2,-7.5 -6.5,-7.5 h -1.6 z"
         id="path3926"
         style="fill:url(#SVGID_1_);stroke:#231f20;stroke-width:0.7159" /><linearGradient
         id="SVGID_2_"
         gradientUnits="userSpaceOnUse"
         x1="136.6217"
         y1="362.84509"
         x2="136.6217"
         y2="346.23169"><stop
           offset="0"
           style="stop-color:#FFF8CA"
           id="stop3928" /><stop
           offset="1"
           style="stop-color:#EAAD21"
           id="stop3930" /></linearGradient><path
         class="st5"
         d="m 140,345.2 5.7,15.5 c 0.7,1.9 1.2,2.3 2.3,2.3 h 1.2 v 2.7 H 136.8 V 363 h 1 c 1,0 1.9,-0.1 1.9,-0.5 0,-0.3 0,-0.6 -0.2,-1.1 l -0.7,-2.2 h -6.9 l -0.4,1.2 c -0.4,1.1 -0.5,1.5 -0.5,2 0,0.5 1.2,0.6 2.1,0.6 h 1 v 2.7 h -10 V 363 h 1.2 c 1.2,0 1.7,-0.4 2.3,-2.3 l 5.7,-15.5 z m -7.1,11.3 h 4.9 l -2.4,-6.7 h -0.1 z"
         id="path3933"
         style="fill:url(#SVGID_2_);stroke:#231f20;stroke-width:0.7159" /><linearGradient
         id="SVGID_3_"
         gradientUnits="userSpaceOnUse"
         x1="164.4325"
         y1="362.84479"
         x2="164.4325"
         y2="346.23169"><stop
           offset="0"
           style="stop-color:#FFF8CA"
           id="stop3935" /><stop
           offset="1"
           style="stop-color:#EAAD21"
           id="stop3937" /></linearGradient><path
         class="st6"
         d="m 154.6,349.2 c 0,-0.8 -0.5,-1.2 -1.3,-1.2 h -2.1 v -2.7 h 15.6 c 4.7,0 7.5,1.7 7.5,5 0,2.9 -2.2,4.3 -5.1,4.6 v 0.1 c 2.5,0.7 4,1.4 4,3.9 v 3.3 c 0,0.6 0.2,1.1 1.2,1.1 0.9,0 1.1,-1 1.1,-1.9 V 360 h 2.3 v 1.1 c 0,3 -1.2,5.3 -5.5,5.3 -3.2,0 -5.4,-1.5 -5.4,-5.1 v -2.5 c 0,-1.9 -0.3,-2.3 -3.1,-2.3 H 161 v 5.3 c 0,0.8 0.5,1.2 1.3,1.2 h 2.1 v 2.7 H 151.2 V 363 h 2.1 c 0.8,0 1.3,-0.5 1.3,-1.2 z m 6.3,4.5 h 3.2 c 2.5,0 3.8,-0.5 3.8,-3 0,-2.3 -1.5,-2.8 -4.6,-2.8 h -2.4 z"
         id="path3940"
         style="fill:url(#SVGID_3_);stroke:#231f20;stroke-width:0.7159" /><linearGradient
         id="SVGID_4_"
         gradientUnits="userSpaceOnUse"
         x1="190.65919"
         y1="362.84509"
         x2="190.65919"
         y2="346.23169"><stop
           offset="0"
           style="stop-color:#FFF8CA"
           id="stop3942" /><stop
           offset="1"
           style="stop-color:#EAAD21"
           id="stop3944" /></linearGradient><path
         class="st7"
         d="m 182.8,349.2 c 0,-0.8 -0.5,-1.2 -1.3,-1.2 h -2.1 v -2.7 h 22.5 v 7.9 h -3.1 c 0,-4.5 -1.9,-5.1 -6.2,-5.1 h -3.4 v 5.9 h 1 c 2,0 2.7,-0.7 2.7,-2.6 v -0.7 h 2.8 v 9.3 h -2.8 v -0.7 c 0,-1.1 -0.5,-2.6 -1.7,-2.6 h -2 v 6.4 h 4.1 c 3.6,0 5.4,-0.7 5.4,-5.7 h 3.1 v 8.4 H 179.3 V 363 h 2.1 c 0.8,0 1.3,-0.5 1.3,-1.2 v -12.6 z"
         id="path3947"
         style="fill:url(#SVGID_4_);stroke:#231f20;stroke-width:0.7159" /><linearGradient
         id="SVGID_5_"
         gradientUnits="userSpaceOnUse"
         x1="214.5519"
         y1="362.98099"
         x2="214.5519"
         y2="346.9736"><stop
           offset="0"
           style="stop-color:#FFF8CA"
           id="stop3949" /><stop
           offset="1"
           style="stop-color:#EAAD21"
           id="stop3951" /></linearGradient><path
         class="st8"
         d="m 215.3,354.2 h -0.7 c -0.4,0 -0.8,0 -0.8,0.3 0,0.1 0.2,0.4 0.4,0.6 l 1.6,1.6 1.7,-1.3 c 0.4,-0.3 0.6,-0.5 0.6,-0.8 0,-0.4 -0.5,-0.4 -1,-0.4 h -0.3 v -2.4 h 7.9 v 2.4 H 224 c -0.7,0 -1.5,0.4 -2.3,1 l -4,3.1 3.9,4 c 0.7,0.7 1.3,1.1 2,1.1 h 1.3 v 2.4 h -11.1 v -2.4 h 0.7 c 0.5,0 0.9,0 0.9,-0.4 0,-0.1 -0.2,-0.4 -0.4,-0.6 l -1.7,-1.6 -2.2,2 c -0.2,0.2 -0.3,0.3 -0.3,0.4 0,0.2 0.4,0.2 0.8,0.2 h 0.8 v 2.4 h -8 v -2.4 h 0.9 c 0.7,0 1.4,-0.3 2.3,-1 l 4,-3.4 -4,-3.8 c -0.6,-0.6 -1.2,-1 -2.1,-1 h -0.7 v -2.4 h 10.6 v 2.4 z"
         id="path3954"
         style="fill:url(#SVGID_5_);stroke:#231f20;stroke-width:0.7159" /><g
         id="g3963"><linearGradient
           id="SVGID_6_"
           gradientUnits="userSpaceOnUse"
           x1="214.63969"
           y1="362.98141"
           x2="214.63969"
           y2="346.97339"><stop
             offset="0"
             style="stop-color:#FFF8CA"
             id="stop3956" /><stop
             offset="1"
             style="stop-color:#EAAD21"
             id="stop3958" /></linearGradient><path
           class="st9"
           d="m 204.8,349.9 v -3.8 h 19.8 v 3.8 z"
           id="path3961"
           style="fill:url(#SVGID_6_);stroke:#231f20;stroke-width:0.7159" /></g></g></g></svg>