<?xml version="1.0" encoding="UTF-8" standalone="no"?>
<svg
   xmlns:dc="http://purl.org/dc/elements/1.1/"
   xmlns:cc="http://creativecommons.org/ns#"
   xmlns:rdf="http://www.w3.org/1999/02/22-rdf-syntax-ns#"
   xmlns:svg="http://www.w3.org/2000/svg"
   xmlns="http://www.w3.org/2000/svg"
   height="24"
   width="24"
   style="fill:#929A9C"
   xml:space="preserve"
   viewBox="0 0 24 24"
   y="0px"
   x="0px"
   id="Layer_1"
   version="1.1"><metadata
     id="metadata13"><rdf:RDF><cc:Work
         rdf:about=""><dc:format>image/svg+xml</dc:format><dc:type
           rdf:resource="http://purl.org/dc/dcmitype/StillImage" /><dc:title></dc:title></cc:Work></rdf:RDF></metadata><defs
     id="defs11" /><style
     id="style2"
     type="text/css">
  .st0{transition:.2s;}
</style><g
     transform="translate(-150.4,-347.8)"
     id="g6"><path
       id="path4"
       d="M 169.7,347.9 H 155 c -2.6,0 -4.6,2.1 -4.6,4.6 v 4.9 9.8 c 0,2.6 2.1,4.6 4.6,4.6 h 14.7 c 2.6,0 4.6,-2.1 4.6,-4.6 v -9.8 -4.9 c 0.1,-2.5 -2,-4.6 -4.6,-4.6 z m 1.4,2.8 h 0.5 v 0.5 3.5 h -4.1 v -4.1 z m -12.2,6.8 c 0.8,-1.1 2,-1.8 3.4,-1.8 1.4,0 2.7,0.7 3.4,1.8 0.5,0.7 0.8,1.5 0.8,2.5 0,2.3 -1.9,4.2 -4.2,4.2 -2.3,0 -4.2,-1.9 -4.2,-4.2 0,-1 0.3,-1.8 0.8,-2.5 z m 13.1,9.8 c 0,1.3 -1,2.3 -2.3,2.3 H 155 c -1.3,0 -2.3,-1 -2.3,-2.3 v -9.8 h 3.6 c -0.3,0.8 -0.5,1.6 -0.5,2.5 0,3.6 2.9,6.6 6.6,6.6 3.6,0 6.6,-2.9 6.6,-6.6 0,-0.9 -0.2,-1.7 -0.5,-2.5 h 3.6 v 9.8 z"
       class="st0" /></g></svg>