<?xml version="1.0" encoding="UTF-8" standalone="no"?>
<svg
   xmlns:dc="http://purl.org/dc/elements/1.1/"
   xmlns:cc="http://creativecommons.org/ns#"
   xmlns:rdf="http://www.w3.org/1999/02/22-rdf-syntax-ns#"
   xmlns:svg="http://www.w3.org/2000/svg"
   xmlns="http://www.w3.org/2000/svg"
   height="24.165686"
   width="24"
   style="fill:#929A9C"
   xml:space="preserve"
   viewBox="0 0 24 24.165686"
   y="0px"
   x="0px"
   id="Layer_1"
   version="1.1"><metadata
     id="metadata11"><rdf:RDF><cc:Work
         rdf:about=""><dc:format>image/svg+xml</dc:format><dc:type
           rdf:resource="http://purl.org/dc/dcmitype/StillImage" /><dc:title></dc:title></cc:Work></rdf:RDF></metadata><defs
     id="defs9" /><style
     id="style2"
     type="text/css">
  .st0{transition:.2s;}
</style><path
     id="path4"
     d="m 6.6788136,24 c 0,0.2 0.2,0.2 0.3,0.1 0.1,-0.2 1.9,-2.4 2.5,-4.5 0.2,-0.6 1.0000004,-3.8 1.0000004,-3.8 0.5,0.9 1.9,1.7 3.4,1.7 4.5,0 7.6,-4.1 7.6,-9.5 0,-4.1 -3.5,-8 -8.9,-8 C 5.8788136,0 2.4788136,4.7 2.4788136,8.7 c 0,2.4 0.9,4.5 2.9,5.3 0.3,0.1 0.6,0 0.7,-0.3 0.1,-0.2 0.2,-0.9 0.3,-1.1 0.1,-0.3 0.1,-0.5 -0.2,-0.8 -0.6,-0.7 -0.9,-1.5 -0.9,-2.7 0,-3.5 2.7,-6.6 6.9000004,-6.6 3.8,0 5.9,2.3 5.9,5.3 0,4 -1.8,7.4 -4.5,7.4 -1.5,0 -2.6,-1.2 -2.2,-2.7 0.4,-1.8 1.2,-3.7 1.2,-4.9 0,-1.1 -0.6,-2.1 -1.9,-2.1 -1.5000004,0 -2.7000004,1.5 -2.7000004,3.6 0,1.3 0.5,2.2 0.5,2.2 0,0 -1.5,6.4 -1.8,7.6 -0.5,2.1 -0.1,4.9 0,5.1 z"
     class="st0" /></svg>