<?xml version="1.0" encoding="UTF-8" standalone="no"?>
<svg
   xmlns:dc="http://purl.org/dc/elements/1.1/"
   xmlns:cc="http://creativecommons.org/ns#"
   xmlns:rdf="http://www.w3.org/1999/02/22-rdf-syntax-ns#"
   xmlns:svg="http://www.w3.org/2000/svg"
   xmlns="http://www.w3.org/2000/svg"
   height="24"
   width="24"
   style="fill:#929A9C"
   xml:space="preserve"
   viewBox="0 0 24 24"
   y="0px"
   x="0px"
   id="Layer_1"
   version="1.1"><metadata
     id="metadata13"><rdf:RDF><cc:Work
         rdf:about=""><dc:format>image/svg+xml</dc:format><dc:type
           rdf:resource="http://purl.org/dc/dcmitype/StillImage" /><dc:title></dc:title></cc:Work></rdf:RDF></metadata><defs
     id="defs11" /><style
     id="style2"
     type="text/css">
  .st0{transition:.2s;}
</style><g
     transform="translate(-150.45,-348)"
     id="g6"><path
       id="path4"
       d="m 173.7,350 c -1,0.6 -2,1 -3.1,1.3 -0.9,-1 -2.2,-1.6 -3.6,-1.6 -2.7,0 -4.9,2.3 -4.9,5.2 0,0.4 0,0.8 0.1,1.2 -4.1,-0.2 -7.7,-2.3 -10.2,-5.4 -0.4,0.8 -0.7,1.7 -0.7,2.6 0,1.8 0.9,3.4 2.2,4.3 -0.8,0 -1.6,-0.3 -2.2,-0.6 0,0 0,0 0,0.1 0,2.5 1.7,4.6 4,5.1 -0.4,0.1 -0.8,0.2 -1.3,0.2 -0.3,0 -0.6,0 -0.9,-0.1 0.6,2.1 2.4,3.6 4.6,3.6 -1.7,1.4 -3.8,2.2 -6.1,2.2 -0.4,0 -0.8,0 -1.2,-0.1 2.2,1.5 4.8,2.3 7.6,2.3 9.1,0 14,-7.9 14,-14.8 0,-0.2 0,-0.4 0,-0.7 1,-0.7 1.8,-1.6 2.5,-2.7 -0.9,0.4 -1.8,0.7 -2.8,0.8 0.8,-0.7 1.6,-1.7 2,-2.9 z"
       class="st0" /></g></svg>