<?xml version="1.0" encoding="UTF-8" standalone="no"?>
<svg
   xmlns:dc="http://purl.org/dc/elements/1.1/"
   xmlns:cc="http://creativecommons.org/ns#"
   xmlns:rdf="http://www.w3.org/1999/02/22-rdf-syntax-ns#"
   xmlns:svg="http://www.w3.org/2000/svg"
   xmlns="http://www.w3.org/2000/svg"
   version="1.1"
   id="Layer_1"
   x="0px"
   y="0px"
   viewBox="0 0 130 32.000001"
   xml:space="preserve"
   width="130"
   height="32"><metadata
     id="metadata67"><rdf:RDF><cc:Work
         rdf:about=""><dc:format>image/svg+xml</dc:format><dc:type
           rdf:resource="http://purl.org/dc/dcmitype/StillImage" /><dc:title></dc:title></cc:Work></rdf:RDF></metadata><defs
     id="defs65" /><style
     type="text/css"
     id="style2">
  * {pointer-events:none;}
	.st0{fill:#333333;}
	.st1{fill:#FAB622;}
</style><g
     id="g60"
     transform="translate(-97.25,-344.15)"><g
       id="g32"><g
         id="g30"><g
           id="g12"><path
             class="st0"
             d="m 127.6,355.5 3,-6.2 3,6.3 1.8,-6.3 2.9,0.4 -4.3,12.4 v 0 l -3.3,-7.3 -3.6,7.3 H 127 l -4.1,-12.4 3,-0.4 z"
             id="path4"
             style="fill:#333333" /><path
             class="st0"
             d="m 151.3,355.6 c 0,3.5 -2.9,6.4 -6.4,6.4 -3.5,0 -6.4,-2.8 -6.4,-6.4 0,-3.5 2.9,-6.4 6.4,-6.4 3.5,0.1 6.4,2.9 6.4,6.4 z m -9.9,0 c 0,1.9 1.5,3.6 3.4,3.6 1.9,0 3.4,-1.7 3.4,-3.6 0,-1.9 -1.6,-3.6 -3.4,-3.6 -1.9,0 -3.4,1.8 -3.4,3.6 z"
             id="path6"
             style="fill:#333333" /><path
             class="st0"
             d="m 152.3,349.5 h 3.4 c 2.8,0 4.9,1 4.9,3.8 0,1.3 -0.7,2.6 -1.9,3.1 l 3.3,4.6 -3,1 -3.5,-5.7 v 0 5.3 l -3,0.3 v -12.4 z m 3,6 c 1.3,0.1 2.3,-0.3 2.3,-1.8 0,-1.5 -1.1,-1.7 -2.3,-1.6 z"
             id="path8"
             style="fill:#333333" /><path
             class="st0"
             d="m 165.4,349.3 v 5.5 h 0.1 l 4,-5.5 2.9,0.8 -4,5.3 4.1,5.9 -3.1,0.8 -4,-6 h -0.1 v 5.6 l -3,0.3 v -12.3 z"
             id="path10"
             style="fill:#333333" /></g><g
           id="g24"><path
             class="st0"
             d="m 182.8,352.7 c -0.7,-0.6 -1.2,-0.9 -2.1,-0.9 -0.5,0 -1.3,0.3 -1.3,0.9 0,1.9 5.2,0.7 5.2,5 0,2.7 -2,3.9 -4.5,3.9 -1.5,0 -3,-0.4 -4.1,-1.4 l 1.7,-2.2 c 0.5,0.6 1.3,0.9 2.2,0.9 0.6,0 1.5,-0.3 1.5,-1.1 0,-1.8 -5.2,-0.7 -5.2,-5 0,-2.3 2.1,-3.6 4.3,-3.6 1.3,0 2.7,0.5 3.8,1.4 z"
             id="path14"
             style="fill:#333333" /><path
             class="st0"
             d="m 186,361.5 v -11.9 l 2.9,-0.3 v 4.6 h 3.8 v -4.3 l 2.9,-0.3 v 11.9 l -2.9,0.3 v -5 h -3.8 v 4.7 z"
             id="path16"
             style="fill:#333333" /><path
             class="st0"
             d="m 202.2,349.3 6.3,11.7 -3,0.6 -1.2,-2.5 h -4.5 l -1.2,2.5 -2.8,-0.6 z m -1.6,7.7 h 3.1 l -1.6,-2.9 z"
             id="path18"
             style="fill:#333333" /><path
             class="st0"
             d="m 208.5,349.6 h 3.3 c 2.7,0 4.7,1 4.7,3.7 0,1.2 -0.7,2.5 -1.9,3 l 3.2,4.5 -2.9,0.9 -3.4,-5.6 v 0 5.2 l -2.9,0.3 v -12 z m 2.9,5.8 c 1.2,0.1 2.2,-0.3 2.2,-1.7 0,-1.4 -1,-1.6 -2.2,-1.6 z"
             id="path20"
             style="fill:#333333" /><path
             class="st0"
             d="m 218.2,349.6 h 3.5 c 2.9,0 4.8,0.9 4.8,3.8 0,2.3 -1.9,3.7 -4.4,3.7 h -1 v 4.1 l -2.9,0.3 z m 2.9,5 h 0.8 c 1.1,0 1.7,-0.5 1.7,-1.3 0,-0.8 -0.6,-1.3 -1.7,-1.3 h -0.8 z"
             id="path22"
             style="fill:#333333" /></g><g
           id="g28"><path
             class="st0"
             d="m 222.8,360.4 c 0,-0.9 0.7,-1.5 1.6,-1.5 0.8,0 1.5,0.6 1.5,1.5 0,0.9 -0.7,1.5 -1.5,1.5 -0.8,0 -1.6,-0.6 -1.6,-1.5 z m 0.4,0 c 0,0.7 0.5,1.3 1.2,1.3 0.7,0 1.2,-0.5 1.2,-1.3 0,-0.7 -0.5,-1.3 -1.2,-1.3 -0.7,0 -1.2,0.6 -1.2,1.3 z m 0.9,0.9 h -0.3 v -1.7 h 0.7 c 0.4,0 0.6,0.1 0.6,0.5 0,0.3 -0.2,0.4 -0.5,0.5 l 0.5,0.8 h -0.3 l -0.4,-0.8 h -0.3 z m 0.3,-1 c 0.2,0 0.4,0 0.4,-0.3 0,-0.2 -0.2,-0.2 -0.4,-0.2 h -0.3 v 0.5 z"
             id="path26"
             style="fill:#333333" /></g></g></g><rect
       x="98"
       y="349.20001"
       class="st1"
       width="21.6"
       height="21.6"
       id="rect34"
       style="fill:#fab622" /><g
       id="g42"><polygon
         class="st0"
         points="105.7,357.7 102.3,361.3 99.6,358.6 103.9,354.3 "
         id="polygon36"
         style="fill:#333333" /><polygon
         class="st0"
         points="112.4,357.8 105.6,364.7 103,362 110.8,354.2 "
         id="polygon38"
         style="fill:#333333" /><polygon
         class="st0"
         points="117.7,353.9 117.9,359.1 109,368 106.3,365.4 "
         id="polygon40"
         style="fill:#333333" /></g><g
       id="g58"><path
         class="st0"
         d="m 126.9,371 c -1,0 -1.4,-0.5 -1.4,-1.4 v -4.2 c 0,-1 0.5,-1.4 1.4,-1.4 h 2.6 c 1,0 1.4,0.5 1.4,1.4 v 4.2 c 0,1 -0.5,1.4 -1.4,1.4 z m 0,-1.6 c 0,0.2 0.1,0.2 0.2,0.2 h 2.1 c 0.2,0 0.2,-0.1 0.2,-0.2 v -4 c 0,-0.2 -0.1,-0.2 -0.2,-0.2 h -2.1 c -0.2,0 -0.2,0.1 -0.2,0.2 z"
         id="path44"
         style="fill:#333333" /><path
         class="st0"
         d="m 146.5,369.6 c 0,1 -0.5,1.4 -1.4,1.4 h -2.4 c -1,0 -1.4,-0.5 -1.4,-1.4 V 364 h 1.4 v 5.5 c 0,0.2 0.1,0.2 0.2,0.2 h 2 c 0.2,0 0.2,-0.1 0.2,-0.2 V 364 h 1.4 z"
         id="path46"
         style="fill:#333333" /><path
         class="st0"
         d="m 159.9,365.3 v 5.7 h -1.4 v -5.7 h -1.9 V 364 h 5.3 v 1.3 z"
         id="path48"
         style="fill:#333333" /><path
         class="st0"
         d="m 175.7,363.9 c 1,0 1.4,0.5 1.4,1.4 v 4.2 c 0,1 -0.5,1.4 -1.4,1.4 h -3.8 v -7 z m -0.2,5.7 c 0.2,0 0.2,-0.1 0.2,-0.2 v -4 c 0,-0.2 -0.1,-0.2 -0.2,-0.2 h -2.2 v 4.4 z"
         id="path50"
         style="fill:#333333" /><path
         class="st0"
         d="m 188.8,371 c -1,0 -1.4,-0.5 -1.4,-1.4 v -4.2 c 0,-1 0.5,-1.4 1.4,-1.4 h 2.6 c 1,0 1.4,0.5 1.4,1.4 v 4.2 c 0,1 -0.5,1.4 -1.4,1.4 z m 0.1,-1.6 c 0,0.2 0.1,0.2 0.2,0.2 h 2.1 c 0.2,0 0.2,-0.1 0.2,-0.2 v -4 c 0,-0.2 -0.1,-0.2 -0.2,-0.2 h -2.1 c -0.2,0 -0.2,0.1 -0.2,0.2 z"
         id="path52"
         style="fill:#333333" /><path
         class="st0"
         d="m 204.5,371 c -1,0 -1.4,-0.5 -1.4,-1.4 v -4.2 c 0,-1 0.5,-1.4 1.4,-1.4 h 2.6 c 1,0 1.4,0.5 1.4,1.4 v 4.2 c 0,1 -0.5,1.4 -1.4,1.4 z m 0,-1.6 c 0,0.2 0.1,0.2 0.2,0.2 h 2.1 c 0.2,0 0.2,-0.1 0.2,-0.2 v -4 c 0,-0.2 -0.1,-0.2 -0.2,-0.2 h -2.1 c -0.2,0 -0.2,0.1 -0.2,0.2 z"
         id="path54"
         style="fill:#333333" /><path
         class="st0"
         d="m 222.7,371 -1.2,-2.5 h -1.2 v 2.5 h -1.4 v -7 h 3.7 c 1,0 1.4,0.5 1.4,1.4 v 1.7 c 0,0.8 -0.3,1.2 -1,1.4 l 1.2,2.6 h -1.5 z m -0.3,-3.8 c 0.2,0 0.2,-0.1 0.2,-0.2 v -1.6 c 0,-0.2 -0.1,-0.2 -0.2,-0.2 h -2 v 2 z"
         id="path56"
         style="fill:#333333" /></g></g></svg>