<?xml version="1.0" encoding="UTF-8" standalone="no"?>
<svg
   xmlns:dc="http://purl.org/dc/elements/1.1/"
   xmlns:cc="http://creativecommons.org/ns#"
   xmlns:rdf="http://www.w3.org/1999/02/22-rdf-syntax-ns#"
   xmlns:svg="http://www.w3.org/2000/svg"
   xmlns="http://www.w3.org/2000/svg"
   version="1.1"
   id="Layer_1"
   x="0px"
   y="0px"
   viewBox="0 0 24 24"
   xml:space="preserve"
   width="24"
   height="24"
   style="fill:#929A9C"><metadata
     id="metadata25"><rdf:RDF><cc:Work
         rdf:about=""><dc:format>image/svg+xml</dc:format><dc:type
           rdf:resource="http://purl.org/dc/dcmitype/StillImage" /><dc:title></dc:title></cc:Work></rdf:RDF></metadata><defs
     id="defs23" /><style
     id="style2"
     type="text/css">
  .st0{transition:.2s;}
</style><g
     id="g18"
     transform="translate(-150.4,-348)"><path
       class="st0"
       d="m 168.8,363.9 c -0.2,0 -0.3,0.1 -0.4,0.2 -0.1,0.1 -0.1,0.3 -0.1,0.6 v 0.6 h 1.1 v -0.6 c 0,-0.3 0,-0.5 -0.1,-0.6 -0.2,-0.1 -0.3,-0.2 -0.5,-0.2 z"
       id="path4" /><g
       id="g16"><path
         class="st0"
         d="m 170,359.1 h -15.2 c -2.4,0 -4.4,2.1 -4.4,4.6 v 3.7 c 0,2.5 2,4.6 4.4,4.6 H 170 c 2.4,0 4.4,-2.1 4.4,-4.6 v -3.7 c 0,-2.6 -2,-4.6 -4.4,-4.6 z m -12.1,2.8 h -1.4 v 7.4 h -1.4 v -7.4 h -1.4 v -1.3 h 4.2 z m 4,7.4 h -1.2 v -0.7 c -0.2,0.3 -0.5,0.5 -0.7,0.6 -0.2,0.1 -0.5,0.2 -0.7,0.2 -0.3,0 -0.5,-0.1 -0.6,-0.3 -0.1,-0.2 -0.2,-0.5 -0.2,-0.9 v -5.3 h 1.2 v 4.9 c 0,0.2 0,0.3 0.1,0.3 0.1,0.1 0.1,0.1 0.3,0.1 0.1,0 0.2,0 0.3,-0.1 0.1,-0.1 0.3,-0.2 0.4,-0.3 V 363 h 1.2 v 6.3 z m 4.4,-1.3 c 0,0.4 -0.1,0.8 -0.3,1 -0.2,0.2 -0.5,0.4 -0.8,0.4 -0.2,0 -0.5,0 -0.6,-0.1 -0.2,-0.1 -0.4,-0.2 -0.5,-0.4 v 0.5 h -1.2 v -8.6 h 1.2 v 2.8 c 0.2,-0.2 0.3,-0.3 0.5,-0.4 0.2,-0.1 0.4,-0.2 0.6,-0.2 0.4,0 0.7,0.1 0.9,0.4 0.2,0.3 0.3,0.7 0.3,1.2 v 3.4 z m 4.3,-1.7 h -2.3 v 1.2 c 0,0.3 0,0.6 0.1,0.7 0.1,0.1 0.2,0.2 0.4,0.2 0.2,0 0.3,-0.1 0.4,-0.2 0.1,-0.1 0.1,-0.4 0.1,-0.7 v -0.3 h 1.2 v 0.3 c 0,0.7 -0.2,1.1 -0.5,1.5 -0.3,0.3 -0.8,0.5 -1.4,0.5 -0.5,0 -1,-0.2 -1.3,-0.5 -0.3,-0.3 -0.5,-0.8 -0.5,-1.4 v -2.9 c 0,-0.5 0.2,-1 0.5,-1.3 0.3,-0.3 0.8,-0.5 1.3,-0.5 0.6,0 1,0.2 1.3,0.5 0.3,0.3 0.4,0.8 0.4,1.4 v 1.5 z"
         id="path6"/><path
         class="st0"
         d="m 164.6,363.9 c -0.1,0 -0.2,0 -0.3,0.1 -0.1,0 -0.2,0.1 -0.3,0.2 v 4 c 0.1,0.1 0.2,0.2 0.3,0.2 0.1,0 0.2,0.1 0.3,0.1 0.1,0 0.3,0 0.3,-0.1 0.1,-0.1 0.1,-0.2 0.1,-0.4 v -3.3 c 0,-0.2 0,-0.4 -0.1,-0.5 0,-0.3 -0.2,-0.3 -0.3,-0.3 z"
         id="path8"/><polygon
         class="st0"
         points="154.9,347.9 156.7,353.5 156.7,357.2 158.3,357.2 158.3,353.3 160.1,347.9 158.5,347.9 157.5,351.6 157.4,351.6 156.4,347.9 "
         id="polygon10"/><path
         class="st0"
         d="m 160.7,350.7 c -0.4,0.3 -0.6,0.7 -0.6,1.3 v 3.5 c 0,0.6 0.2,1 0.5,1.4 0.4,0.3 0.8,0.5 1.4,0.5 0.6,0 1.1,-0.2 1.5,-0.5 0.4,-0.3 0.5,-0.8 0.5,-1.4 V 352 c 0,-0.5 -0.2,-1 -0.5,-1.3 -0.4,-0.3 -0.8,-0.5 -1.4,-0.5 -0.5,0 -1,0.1 -1.4,0.5 z m 2,1.2 v 3.7 c 0,0.2 -0.1,0.3 -0.2,0.4 -0.1,0.1 -0.3,0.2 -0.4,0.2 -0.2,0 -0.3,0 -0.4,-0.2 -0.1,-0.1 -0.1,-0.2 -0.1,-0.4 v -3.7 c 0,-0.1 0.1,-0.3 0.2,-0.4 0.1,-0.1 0.2,-0.1 0.4,-0.1 0.2,0 0.3,0 0.4,0.1 0.1,0.1 0.1,0.2 0.1,0.4 z"
         id="path12"/><path
         class="st0"
         d="m 169.1,357.2 v -6.8 h -1.4 v 5.2 c -0.1,0.1 -0.3,0.3 -0.4,0.4 -0.2,0.1 -0.3,0.1 -0.4,0.1 -0.1,0 -0.2,0 -0.3,-0.1 -0.1,-0.1 -0.1,-0.2 -0.1,-0.3 v -5.2 h -1.4 v 5.7 c 0,0.4 0.1,0.7 0.2,0.9 0.2,0.2 0.4,0.3 0.7,0.3 0.3,0 0.5,-0.1 0.8,-0.2 0.3,-0.1 0.5,-0.4 0.8,-0.6 v 0.8 h 1.5 z"
         id="path14"/></g></g></svg>